<svg width="60" height="60" viewBox="0 0 60 60" fill="none" xmlns="http://www.w3.org/2000/svg">
<g clip-path="url(#clip0)">
<path d="M43.6325 60C43.2125 60 42.7825 59.9475 42.3575 59.835L3.70001 49.4825C1.05001 48.7525 -0.529992 46.0075 0.165008 43.3575L5.04251 25.1775C5.22251 24.51 5.90751 24.1225 6.57251 24.2925C7.24001 24.47 7.63501 25.1575 7.45751 25.8225L2.58251 43.9975C2.23501 45.3225 3.03001 46.7025 4.35751 47.07L43 57.4175C44.3275 57.7675 45.6975 56.9775 46.0425 55.6575L47.995 48.4225C48.175 47.755 48.86 47.3575 49.5275 47.54C50.195 47.72 50.5875 48.4075 50.41 49.0725L48.46 56.2975C47.8725 58.5225 45.8475 60 43.6325 60V60Z" fill="#E96B85"/>
<path d="M55 45H15C12.2425 45 10 42.7575 10 40V9.99997C10 7.24247 12.2425 4.99997 15 4.99997H55C57.7575 4.99997 60 7.24247 60 9.99997V40C60 42.7575 57.7575 45 55 45ZM15 7.49997C13.6225 7.49997 12.5 8.62247 12.5 9.99997V40C12.5 41.3775 13.6225 42.5 15 42.5H55C56.3775 42.5 57.5 41.3775 57.5 40V9.99997C57.5 8.62247 56.3775 7.49997 55 7.49997H15Z" fill="#E96B85"/>
<path d="M22.5 22.5C19.7425 22.5 17.5 20.2575 17.5 17.5C17.5 14.7425 19.7425 12.5 22.5 12.5C25.2575 12.5 27.5 14.7425 27.5 17.5C27.5 20.2575 25.2575 22.5 22.5 22.5ZM22.5 15C21.1225 15 20 16.1225 20 17.5C20 18.8775 21.1225 20 22.5 20C23.8775 20 25 18.8775 25 17.5C25 16.1225 23.8775 15 22.5 15Z" fill="#E96B85"/>
<path d="M11.425 42.325C11.105 42.325 10.785 42.2025 10.54 41.96C10.0525 41.4725 10.0525 40.68 10.54 40.1925L22.3475 28.385C23.7625 26.97 26.235 26.97 27.65 28.385L31.165 31.9L40.895 20.225C41.6025 19.3775 42.6425 18.885 43.75 18.875H43.7775C44.8725 18.875 45.91 19.35 46.625 20.1825L59.7 35.4375C60.15 35.96 60.09 36.75 59.565 37.2C59.0425 37.65 58.255 37.5925 57.8025 37.065L44.7275 21.81C44.485 21.53 44.15 21.375 43.7775 21.375C43.5175 21.3525 43.06 21.5325 42.8175 21.825L32.21 34.5525C31.985 34.8225 31.6575 34.985 31.305 35C30.95 35.025 30.6125 34.885 30.365 34.635L25.8825 30.1525C25.41 29.6825 24.5875 29.6825 24.115 30.1525L12.3075 41.96C12.065 42.2025 11.745 42.325 11.425 42.325V42.325Z" fill="#E96B85"/>
</g>
<defs>
<clipPath id="clip0">
<rect width="60" height="60" fill="white"/>
</clipPath>
</defs>
</svg>
