<svg width="60" height="60" viewBox="0 0 60 60" fill="none" xmlns="http://www.w3.org/2000/svg">
<path d="M50.2379 47.4554H13.581C6.09265 47.4554 0 41.3637 0 33.8743C0 26.386 6.09166 20.2923 13.581 20.2923C14.8015 20.2923 16.022 20.4616 17.2168 20.7982C19.3381 15.8241 24.239 12.5446 29.7001 12.5446C33.6209 12.5446 37.2815 14.2076 39.866 17.1346C41.0658 16.6288 42.3615 16.3635 43.6612 16.3635C49.0441 16.3635 53.4223 20.7427 53.4223 26.1256C53.4223 26.8809 53.3312 27.6342 53.1541 28.3776C57.1779 29.6357 60 33.3933 60 37.6933C60 43.0762 55.6198 47.4554 50.2379 47.4554ZM13.581 22.2721C7.18448 22.2721 1.97974 27.4768 1.97974 33.8743C1.97974 40.2709 7.18448 45.4756 13.581 45.4756H50.2379C54.529 45.4756 58.0193 41.9853 58.0193 37.6943C58.0193 33.9743 55.3704 30.7622 51.7217 30.0574C51.4386 30.001 51.1931 29.8268 51.0496 29.5753C50.9061 29.3239 50.8793 29.022 50.9783 28.7498C51.2862 27.8906 51.4426 27.0086 51.4426 26.1266C51.4426 21.8355 47.9513 18.3443 43.6612 18.3443C42.3952 18.3443 41.1806 18.6432 40.0551 19.2332C39.6314 19.4549 39.1118 19.343 38.8178 18.9679C36.5965 16.1438 33.2725 14.5244 29.7001 14.5244C24.7586 14.5244 20.3547 17.6682 18.7402 22.3463C18.6551 22.5958 18.472 22.8007 18.2334 22.9155C17.9958 23.0293 17.7207 23.0452 17.4712 22.9561C16.2002 22.5017 14.8896 22.2721 13.581 22.2721Z" fill="#E96B85"/>
<path d="M38.1664 31.0393C37.619 31.0393 37.1766 31.4828 37.1766 32.0292C37.1766 35.9867 33.9575 39.2058 30 39.2058C26.0425 39.2058 22.8234 35.9867 22.8234 32.0292C22.8234 28.142 25.9326 24.9744 29.7941 24.8645V26.38C29.7941 26.7532 30.004 27.0957 30.3385 27.264C30.4801 27.3352 30.6325 27.3699 30.784 27.3699C30.9919 27.3699 31.1987 27.3046 31.372 27.1769L34.8365 24.62C35.0919 24.432 35.2404 24.133 35.2384 23.8163C35.2344 23.4995 35.082 23.2025 34.8227 23.0184L31.3581 20.5437C31.0562 20.3289 30.6602 20.3002 30.3296 20.4695C30.001 20.6398 29.7931 20.9793 29.7931 21.3495V22.8858C24.8398 22.9966 20.8427 27.0521 20.8427 32.0312C20.8427 37.0805 24.9497 41.1875 29.999 41.1875C35.0483 41.1875 39.1553 37.0805 39.1553 32.0312C39.1563 31.4828 38.7138 31.0393 38.1664 31.0393Z" fill="#E96B85"/>
</svg>
