<svg width="46" height="46" viewBox="0 0 46 46" fill="none" xmlns="http://www.w3.org/2000/svg">
<g clip-path="url(#clip0)">
<path d="M43.7536 5.78439L40.2156 2.24644C38.7781 0.806839 36.8289 0 34.7952 0H5.27095C2.35945 0 0 2.35945 0 5.27095V40.729C0 43.6405 2.35945 46 5.27095 46H40.729C43.6405 46 46 43.6405 46 40.729V11.2048C46 9.17108 45.1932 7.22189 43.7536 5.78439V5.78439ZM7.66655 11.979V7.1875C7.66655 6.394 8.31055 5.75 9.10405 5.75H29.229C30.0226 5.75 30.6665 6.394 30.6665 7.1875V11.979C30.6665 12.7726 30.0226 13.4165 29.229 13.4165H9.10405C8.31055 13.4165 7.66655 12.7726 7.66655 11.979ZM23 38.3335C18.2372 38.3335 14.375 34.4712 14.375 29.7085C14.375 24.9453 18.2372 21.0835 23 21.0835C27.7628 21.0835 31.625 24.9453 31.625 29.7085C31.625 34.4712 27.7628 38.3335 23 38.3335Z" fill="#E96B85"/>
</g>
<defs>
<clipPath id="clip0">
<rect width="46" height="46" fill="white"/>
</clipPath>
</defs>
</svg>
