<svg width="60" height="60" viewBox="0 0 60 60" fill="none" xmlns="http://www.w3.org/2000/svg">
<path d="M58.2 49.8L49.8 41.4C52.5 37.2 54 32.4 54 27C54 12 42 0 27 0C12 0 0 12 0 27C0 42 12 54 27 54C32.4 54 37.2 52.5 41.4 49.8L49.8 58.2C52.2 60.6 55.8 60.6 58.2 58.2C60.6 55.8 60.6 52.2 58.2 49.8ZM27 48C15.3 48 6 38.7 6 27C6 15.3 15.3 6 27 6C38.7 6 48 15.3 48 27C48 38.7 38.4 48 27 48Z" fill="#E96B85"/>
<path d="M39 24H30L28.8 24C27.6 24 27.4721 24 27 24C25.2 24 27 24 24.6 24L24 24H15C13.5 24 12 25.2 12 27C12 28.8 13.2 30 15 30H24L25.2 30C27.7978 30 25.2 30 27 30C28.8 30 26.4 30 28.8 30H30H39C40.8 30 42 28.8 42 27C42 25.2 40.5 24 39 24Z" fill="#E96B85"/>
</svg>
